<?xml version="1.0" standalone="no"?>
<!DOCTYPE svg PUBLIC "-//W3C//DTD SVG 20010904//EN"
 "http://www.w3.org/TR/2001/REC-SVG-20010904/DTD/svg10.dtd">
<svg version="1.0" xmlns="http://www.w3.org/2000/svg"
 width="1080.000000pt" height="1080.000000pt" viewBox="0 0 1080.000000 1080.000000"
 preserveAspectRatio="xMidYMid meet">
<metadata>
Created by potrace 1.16, written by Peter Selinger 2001-2019
</metadata>
<g transform="translate(0.000000,1080.000000) scale(0.100000,-0.100000)"
fill="#000000" stroke="none">
<path d="M0 5400 l0 -5400 5400 0 5400 0 0 5400 0 5400 -5400 0 -5400 0 0
-5400z m4340 1770 c11 0 35 7 51 16 48 24 59 14 59 -57 0 -49 -6 -72 -26 -107
-26 -44 -27 -47 -15 -122 11 -73 10 -102 -9 -185 -5 -22 -11 -103 -14 -180 -4
-138 11 -253 44 -340 18 -47 12 -100 -16 -141 -41 -60 -135 -164 -149 -164
-19 0 -175 225 -175 253 0 10 14 72 30 137 37 145 39 271 9 424 -16 78 -19
119 -13 191 6 88 5 94 -20 137 -26 45 -31 79 -20 138 7 35 16 36 82 9 30 -13
37 -12 70 8 36 21 37 21 63 2 15 -10 37 -19 49 -19z m-1262 -145 c66 -6 148
-31 178 -54 20 -15 12 -16 -111 -13 -146 5 -215 -6 -286 -43 -51 -26 -59 -24
-59 15 0 32 58 96 92 103 23 4 76 2 186 -8z m2588 -11 c30 -21 54 -58 54 -87
0 -35 -8 -38 -43 -17 -65 39 -153 53 -294 48 -112 -4 -131 -2 -121 9 18 22 70
40 150 52 148 23 213 21 254 -5z m-2051 -140 c149 -51 308 -103 355 -115 95
-25 110 -33 110 -60 0 -13 -7 -19 -22 -19 -64 1 -188 33 -291 74 -231 93 -554
252 -447 221 14 -4 147 -49 295 -101z m1596 89 c-31 -21 -316 -153 -442 -204
-103 -42 -182 -64 -267 -74 l-54 -7 4 28 c3 26 9 29 108 55 58 15 177 53 265
85 164 58 382 131 400 133 5 1 -1 -7 -14 -16z m-1987 -42 c14 -5 1 -14 -54
-35 -72 -29 -129 -74 -176 -141 l-21 -30 -56 43 c-59 44 -82 75 -73 97 8 21
53 47 104 61 51 14 245 17 276 5z m2353 -6 c60 -18 103 -49 103 -75 0 -18
-110 -120 -129 -120 -5 0 -21 18 -36 40 -43 62 -86 95 -165 126 -55 21 -68 30
-54 35 35 14 228 10 281 -6z m-2148 -47 c88 -48 90 -49 73 -55 -6 -3 -9 -10
-5 -16 4 -6 0 -8 -10 -4 -11 4 -14 2 -10 -9 3 -7 0 -14 -5 -14 -6 0 -13 8 -15
18 -4 13 -5 11 -6 -5 -1 -20 -7 -23 -40 -23 -21 0 -76 7 -122 16 -45 8 -95 16
-111 16 -16 1 -28 7 -28 15 0 7 -4 13 -10 13 -43 0 67 61 116 64 12 0 20 4 18
8 -4 6 22 14 60 17 10 0 53 -18 95 -41z m1791 32 c0 -5 7 -7 15 -4 8 4 15 1
15 -6 0 -7 6 -10 13 -7 6 2 35 -6 62 -19 28 -13 43 -24 35 -24 -10 -1 -11 -3
-2 -7 6 -2 10 -8 7 -13 -3 -4 4 -6 16 -3 16 4 17 8 7 14 -7 5 -8 9 -3 8 6 0
28 -15 50 -34 l40 -34 -37 11 c-21 6 -34 16 -31 21 3 6 1 7 -6 3 -6 -4 -21 -9
-34 -11 -295 -45 -316 -45 -341 3 -15 28 -15 29 30 50 25 13 51 19 57 16 7 -4
9 -3 5 1 -5 5 4 16 20 26 29 19 82 25 82 9z m-1132 -296 l3 -51 -143 -6 c-208
-10 -476 -8 -483 2 -7 12 88 66 145 82 36 10 377 29 455 25 17 -1 20 -9 23
-52z m767 36 c74 -11 195 -64 203 -89 4 -12 -41 -13 -303 -8 -169 3 -312 10
-316 14 -5 5 -6 29 -3 54 l6 44 172 -3 c94 -1 203 -7 241 -12z m-1210 -125
c83 0 218 2 300 5 l150 5 3 -32 c2 -18 0 -33 -5 -34 -10 0 -452 -10 -563 -12
-79 -2 -90 1 -162 35 -43 20 -78 40 -78 44 0 4 46 3 103 -2 56 -5 170 -9 252
-9z m1148 -2 c87 -4 185 -1 265 7 182 18 195 14 102 -35 -85 -45 -35 -41 -490
-32 l-235 5 -3 37 -3 38 113 -7 c62 -3 175 -9 251 -13z m-1533 -23 c0 -15 -33
-29 -137 -54 -54 -13 -127 -35 -163 -49 -36 -13 -74 -27 -85 -32 -12 -4 -6 5
15 24 47 41 155 95 175 87 9 -3 13 -2 10 3 -3 6 14 14 37 19 58 13 148 14 148
2z m82 -37 c26 -23 22 -70 -7 -109 -20 -26 -41 -38 -98 -55 -101 -30 -144 -54
-162 -90 -19 -36 -49 -36 -53 1 -4 44 58 112 167 184 56 36 101 71 101 76 0
16 32 12 52 -7z m1900 -1 c14 -20 101 -82 115 -82 18 0 105 -85 129 -126 21
-36 24 -47 14 -59 -18 -22 -35 -18 -48 10 -14 30 -60 60 -127 81 -91 28 -125
47 -145 79 -24 39 -25 63 -4 93 18 27 48 29 66 4z m-1145 -36 c-2 -6 -34 -14
-71 -18 -87 -8 -110 -17 -211 -78 -45 -27 -97 -53 -114 -56 -29 -6 -32 -4 -51
37 -28 62 -27 107 3 114 54 11 82 13 260 12 133 0 187 -3 184 -11z m780 -4
c24 -14 24 -44 -3 -110 -20 -49 -39 -50 -118 -7 -164 88 -188 98 -258 103 -47
3 -68 9 -68 18 0 19 414 15 447 -4z m-1714 -11 c-57 -26 -127 -93 -166 -158
-17 -29 -35 -53 -40 -53 -16 0 -83 39 -102 60 -15 16 -17 25 -9 38 25 40 248
129 329 131 29 1 28 0 -12 -18z m2290 -7 c88 -24 214 -84 229 -108 13 -20 -80
-96 -119 -96 -4 0 -20 22 -35 49 -37 64 -97 125 -155 155 -62 32 -35 32 80 0z
m-1847 -93 c4 -9 6 -22 5 -30 -1 -7 2 -10 7 -7 6 3 9 -1 8 -11 -3 -19 -105
-62 -150 -62 -23 -1 -27 2 -21 17 4 9 9 28 11 41 11 57 83 149 105 135 5 -3
10 3 10 13 1 10 5 -4 9 -31 5 -26 12 -55 16 -65z m1414 34 c7 -8 9 -15 4 -15
-5 0 -4 -4 1 -8 9 -6 45 -98 45 -114 0 -5 -9 -8 -20 -8 -24 0 -141 38 -153 50
-5 4 1 26 12 48 12 23 21 60 21 82 l0 42 38 -31 c22 -17 45 -37 52 -46z m-832
-954 c-2 -401 -6 -515 -15 -519 -10 -3 -13 108 -13 535 1 477 2 536 15 518 13
-16 15 -92 13 -534z m210 -101 c0 -261 -3 -486 -7 -500 -6 -23 -8 -20 -19 22
-18 69 -17 1081 1 1111 10 19 13 11 18 -68 4 -49 7 -304 7 -565z m-68 79 c0
-396 -3 -500 -12 -497 -10 4 -14 110 -16 479 -1 261 0 484 3 497 3 12 10 22
15 22 6 0 10 -180 10 -501z m1711 464 c98 -44 161 -129 195 -263 23 -90 15
-280 -15 -365 -66 -186 -236 -274 -422 -219 -159 47 -249 201 -249 429 0 229
98 395 255 434 63 16 183 7 236 -16z m-4638 -412 c65 -236 117 -432 117 -435
0 -4 -42 -5 -92 -4 l-93 3 -9 43 -9 43 -111 -3 -111 -3 -9 -42 -9 -43 -88 0
c-60 0 -89 4 -89 11 0 7 32 138 71 293 39 155 87 345 106 424 l35 142 87 0 88
0 116 -429z m429 72 l3 -358 145 -2 145 -1 3 -76 3 -76 -241 0 -240 0 0 435 0
435 90 0 90 0 2 -357z m673 210 c39 -82 84 -177 101 -213 l31 -65 40 86 c22
47 66 143 98 212 l58 127 49 0 c30 0 50 -5 53 -12 12 -37 85 -842 77 -850 -5
-5 -44 -8 -88 -6 l-79 3 -14 223 c-8 122 -18 222 -22 222 -4 0 -36 -54 -70
-120 l-62 -120 -36 0 c-34 0 -39 4 -64 53 -75 147 -106 200 -111 187 -2 -8 -9
-98 -16 -200 -6 -102 -14 -200 -17 -217 l-5 -33 -84 0 c-61 0 -84 3 -84 13 0
6 13 163 30 347 16 184 32 369 35 410 9 103 7 100 63 100 l48 0 69 -147z
m1049 130 c2 -10 32 -117 65 -238 32 -121 82 -304 110 -406 28 -102 51 -191
51 -198 0 -8 -26 -11 -92 -9 l-92 3 -9 43 -8 42 -109 0 -110 0 -11 -45 -11
-45 -89 0 c-49 0 -89 3 -89 6 0 12 211 848 216 856 3 4 43 8 89 8 71 0 84 -3
89 -17z m704 -466 c2 -420 0 -477 -13 -477 -13 0 -15 59 -15 481 0 380 3 480
13 477 9 -4 13 -111 15 -481z m909 470 c110 -29 176 -121 176 -247 0 -64 -16
-113 -50 -151 -12 -14 -11 -18 11 -33 70 -45 99 -105 94 -192 -7 -115 -87
-201 -207 -224 -29 -5 -125 -10 -212 -10 l-159 0 0 435 0 435 148 0 c90 0 168
-5 199 -13z m1473 -192 l0 -205 130 0 130 0 0 205 0 205 90 0 90 0 0 -435 0
-435 -90 0 -90 0 0 145 0 146 -127 -3 -128 -3 -3 -142 -3 -143 -89 0 -90 0 0
435 0 435 90 0 90 0 0 -205z m1088 128 l-3 -78 -115 -2 -115 -1 -3 -121 -3
-120 118 -3 118 -3 0 -70 0 -70 -117 -3 -118 -3 0 -79 0 -80 120 0 120 0 0
-80 0 -80 -215 0 -215 0 0 435 0 435 215 0 216 0 -3 -77z m458 -119 c52 -107
94 -199 94 -204 0 -40 31 11 115 191 l98 210 51 -3 51 -3 8 -90 c5 -49 24
-241 42 -425 19 -184 30 -339 26 -343 -4 -4 -43 -7 -87 -5 l-79 3 -13 185 c-7
102 -15 205 -18 229 l-6 45 -66 -127 c-66 -126 -67 -127 -102 -127 -35 0 -36
1 -105 128 l-70 127 -12 -160 c-7 -88 -15 -193 -18 -232 l-7 -73 -84 0 c-80 0
-84 1 -84 23 0 12 16 200 35 417 19 217 35 403 35 413 0 14 9 17 51 17 l50 0
95 -196z m912 -236 l-3 -433 -90 0 -90 0 -3 420 c-1 231 0 426 3 432 3 9 32
13 95 13 l90 0 -2 -432z m600 320 c17 -62 69 -254 117 -427 47 -172 85 -318
85 -323 0 -5 -41 -7 -92 -6 l-92 3 -9 43 -8 43 -112 -3 -111 -3 -9 -42 -8 -43
-90 0 c-49 0 -89 3 -89 8 0 4 48 199 107 434 l108 428 86 0 87 0 30 -112z
m-5405 -907 c4 0 16 -21 27 -46 19 -45 36 -57 93 -70 30 -6 30 -7 47 -73 8
-31 20 -48 41 -60 16 -10 34 -31 40 -50 6 -18 23 -40 37 -49 15 -9 29 -18 31
-20 7 -5 -33 -45 -61 -59 -15 -8 -39 -14 -53 -14 l-27 0 21 36 c52 87 11 118
-161 119 -93 0 -110 -3 -135 -21 -36 -27 -40 -56 -14 -98 11 -18 18 -36 14
-39 -17 -18 -72 -5 -121 28 l-52 36 25 43 c30 51 32 102 5 136 -11 14 -20 30
-20 37 0 19 152 153 185 162 26 7 47 7 78 2z m295 -14 c8 -6 11 -20 7 -35 -13
-51 48 -94 84 -59 12 10 13 8 6 -8 -5 -11 -9 -33 -9 -50 -1 -27 4 -31 42 -43
23 -8 42 -18 42 -22 0 -13 -115 -80 -138 -80 -15 0 -27 13 -41 45 -11 25 -30
50 -43 56 -25 11 -58 86 -58 132 0 39 17 75 37 79 23 5 54 -2 71 -15z m-732
-116 c34 -48 52 -59 126 -75 54 -12 50 -80 -7 -139 -40 -41 -44 -69 -19 -134
19 -50 14 -69 -23 -85 -15 -6 -45 -28 -65 -47 -27 -25 -41 -32 -49 -24 -6 6
-11 59 -12 124 -2 90 2 125 17 165 l19 51 -42 68 c-22 38 -41 79 -41 91 0 19
32 52 53 53 4 1 23 -21 43 -48z m4972 -57 c36 -24 13 -39 -29 -19 -26 13 -40
14 -62 6 -39 -15 -34 -27 20 -51 26 -11 55 -28 65 -37 14 -13 31 -15 88 -9 59
5 70 4 70 -9 0 -10 -10 -15 -29 -15 -16 0 -43 -3 -60 -6 -26 -5 -31 -11 -31
-34 0 -37 -31 -74 -83 -99 -60 -29 -108 -27 -147 5 -28 24 -34 25 -75 15 -24
-6 -72 -11 -105 -11 -56 0 -65 3 -91 31 l-29 31 -53 -35 c-82 -56 -173 -67
-190 -23 -3 8 3 41 13 72 22 64 26 104 9 104 -18 0 -100 -64 -164 -129 -75
-77 -110 -83 -85 -15 6 15 9 29 7 31 -2 2 -33 -10 -68 -27 -101 -47 -169 -36
-184 31 l-7 31 -17 -29 c-10 -15 -25 -34 -34 -42 -27 -21 -35 14 -10 42 12 12
39 62 62 110 25 56 45 87 53 84 14 -5 14 -4 -3 -97 -10 -55 -10 -70 2 -95 20
-40 51 -37 154 14 75 37 82 44 118 105 21 36 44 66 52 66 23 0 18 -15 -30 -98
-25 -42 -45 -81 -45 -86 0 -4 31 20 68 56 74 70 118 94 156 84 36 -9 38 -30 9
-117 -33 -97 -26 -111 40 -85 72 27 144 86 156 127 13 42 77 105 118 115 32 8
76 -13 81 -39 9 -45 -75 -106 -145 -107 -26 0 -33 -4 -33 -19 0 -31 47 -61 94
-61 52 0 143 24 165 43 25 22 81 49 131 62 l45 12 -55 25 c-93 42 -103 79 -29
105 39 15 83 10 117 -13z m-1766 6 c0 -3 -5 -37 -12 -77 -20 -109 10 -158 85
-139 29 7 72 62 90 113 19 56 39 49 46 -17 7 -70 14 -85 45 -99 20 -9 32 -8
52 1 38 19 88 90 108 153 11 33 23 55 32 55 39 0 -36 -182 -93 -226 -19 -14
-52 -28 -74 -31 -33 -5 -44 -1 -65 20 -14 14 -26 37 -26 50 0 40 -10 37 -59
-14 -40 -41 -53 -49 -84 -49 -24 0 -45 8 -64 24 -27 23 -28 28 -27 108 1 85
16 142 35 136 6 -2 11 -6 11 -8z m-2676 -151 c32 -6 63 -14 67 -18 4 -4 0 -22
-10 -39 -20 -35 -41 -39 -151 -25 -44 5 -56 11 -65 30 -13 30 -1 43 50 53 21
4 41 8 44 9 3 0 32 -4 65 -10z m340 -54 c3 -20 1 -48 -5 -64 -24 -56 -113
-122 -158 -115 -7 1 -17 2 -23 3 -5 0 -13 16 -18 33 -8 31 -6 34 27 49 20 9
63 42 96 73 33 30 63 56 67 56 4 0 10 -16 14 -35z m-653 -87 c31 -21 57 -41
57 -44 0 -3 -9 -21 -19 -42 -24 -46 -56 -76 -98 -90 -39 -13 -109 -60 -142
-96 -31 -33 -51 -33 -51 -1 0 30 57 88 137 141 72 47 75 65 35 173 -6 17 -3
15 81 -41z m304 0 c82 -26 102 -41 87 -66 -9 -13 -26 -17 -82 -18 -74 -1 -70
1 -181 -79 -39 -29 -56 -31 -65 -9 -18 47 103 188 166 193 4 1 38 -9 75 -21z
m217 -132 c55 -1 60 -3 82 -36 27 -39 30 -62 10 -79 -17 -14 -41 -15 -146 -6
-81 7 -88 6 -140 -20 -55 -28 -55 -28 -135 -15 -118 20 -152 16 -246 -30 -61
-29 -95 -40 -128 -40 l-46 1 50 45 c57 51 119 91 163 104 25 6 34 4 48 -11 30
-33 70 -24 147 33 64 48 76 52 141 59 39 4 87 4 106 1 19 -3 61 -6 94 -6z
m-104 -301 c0 -88 4 -145 10 -145 15 0 20 35 23 165 2 113 3 120 22 120 19 0
20 -8 23 -107 1 -60 7 -108 12 -108 4 0 12 45 15 100 l8 100 33 0 c42 0 49
-20 49 -135 0 -71 -4 -88 -34 -149 -18 -38 -54 -90 -80 -117 -39 -40 -54 -48
-96 -55 -57 -8 -187 7 -260 31 -82 27 -287 138 -308 166 -21 30 -50 140 -39
150 4 4 22 10 40 14 l32 7 0 -46 c0 -46 12 -61 24 -30 3 9 6 29 6 44 0 26 22
50 44 50 3 0 6 -44 6 -97 0 -75 3 -94 12 -85 7 7 13 50 14 109 2 66 7 99 16
104 34 22 37 11 40 -126 4 -185 22 -181 28 5 l5 145 30 0 30 0 5 -163 c7 -215
24 -216 28 -1 l3 161 27 -7 c15 -3 31 -10 36 -15 5 -5 11 -81 14 -169 3 -89 9
-161 13 -161 5 0 9 71 9 158 0 171 3 180 58 196 l22 7 0 -170 c0 -94 4 -171 9
-171 14 0 18 40 20 202 2 152 6 167 39 168 9 0 12 -36 12 -145z"/>
<path d="M5863 5673 c-31 -6 -73 -51 -97 -103 -28 -60 -29 -250 -2 -320 37
-96 111 -136 190 -102 36 17 48 30 72 78 27 55 29 67 29 179 0 109 -2 125 -27
177 -14 31 -37 64 -51 73 -27 17 -79 26 -114 18z"/>
<path d="M1198 5565 c-3 -6 -18 -75 -33 -155 -14 -80 -29 -155 -32 -167 -5
-22 -3 -23 71 -23 l76 0 -7 33 c-31 155 -70 320 -75 312z"/>
<path d="M3460 5569 c0 -3 -16 -80 -35 -172 -19 -92 -35 -169 -35 -172 0 -3
34 -5 76 -5 74 0 76 1 71 23 -2 12 -19 89 -36 171 -26 124 -41 180 -41 155z"/>
<path d="M5007 5683 c-4 -3 -7 -57 -7 -120 l0 -113 45 0 c35 0 52 6 76 28 59
53 48 161 -21 197 -30 15 -82 20 -93 8z"/>
<path d="M5004 5297 c-3 -8 -4 -49 -2 -93 l3 -79 72 0 c61 0 75 3 97 24 52 49
40 126 -24 148 -49 17 -139 17 -146 0z"/>
<path d="M9577 5555 c-5 -17 -67 -323 -67 -332 0 -2 34 -3 75 -3 41 0 75 2 75
4 0 6 -70 329 -74 341 -1 6 -6 1 -9 -10z"/>
</g>
</svg>
